<?xml version="1.0" encoding="UTF-8" standalone="no"?>
<!-- Created with Inkscape (http://www.inkscape.org/) -->

<svg
   xmlns:dc="http://purl.org/dc/elements/1.1/"
   xmlns:cc="http://creativecommons.org/ns#"
   xmlns:rdf="http://www.w3.org/1999/02/22-rdf-syntax-ns#"
   xmlns:svg="http://www.w3.org/2000/svg"
   xmlns="http://www.w3.org/2000/svg"
   xmlns:sodipodi="http://sodipodi.sourceforge.net/DTD/sodipodi-0.dtd"
   xmlns:inkscape="http://www.inkscape.org/namespaces/inkscape"
   width="64"
   height="64"
   id="svg2"
   version="1.1"
   inkscape:version="0.48.5 r10040"
   sodipodi:docname="New document 1">
  <defs
     id="defs4" />
  <sodipodi:namedview
     id="base"
     pagecolor="#ffffff"
     bordercolor="#666666"
     borderopacity="1.0"
     inkscape:pageopacity="0.0"
     inkscape:pageshadow="2"
     inkscape:zoom="0.49497475"
     inkscape:cx="182.0985"
     inkscape:cy="168.58323"
     inkscape:document-units="px"
     inkscape:current-layer="layer1"
     showgrid="false"
     inkscape:window-width="1614"
     inkscape:window-height="1030"
     inkscape:window-x="1676"
     inkscape:window-y="-3"
     inkscape:window-maximized="1">
    <inkscape:grid
       type="xygrid"
       id="grid2993"
       empspacing="4"
       visible="true"
       enabled="true"
       snapvisiblegridlinesonly="true" />
  </sodipodi:namedview>
  <metadata
     id="metadata7">
    <rdf:RDF>
      <cc:Work
         rdf:about="">
        <dc:format>image/svg+xml</dc:format>
        <dc:type
           rdf:resource="http://purl.org/dc/dcmitype/StillImage" />
        <dc:title></dc:title>
      </cc:Work>
    </rdf:RDF>
  </metadata>
  <g
     inkscape:label="Layer 1"
     inkscape:groupmode="layer"
     id="layer1"
     transform="translate(0,-988.36218)">
    <rect
       style="color:#000000;fill:#333333;fill-opacity:1;fill-rule:nonzero;stroke:none;stroke-width:0.5;marker:none;visibility:visible;display:inline;overflow:visible;enable-background:accumulate"
       id="rect3011"
       width="64"
       height="64"
       x="-1.0214052e-14"
       y="988.36218"
       rx="12"
       ry="11.999997" />
    <path
       style="color:#000000;fill:#ff0000;fill-opacity:1;fill-rule:nonzero;stroke:none;stroke-width:0.5;marker:none;visibility:visible;display:inline;overflow:visible;enable-background:accumulate"
       d="M 12 4 C 7.568 4 4 7.568 4 12 L 4 52 C 4 56.432 7.568 60 12 60 L 52 60 C 56.432 60 60 56.432 60 52 L 60 12 C 60 7.568 56.432 4 52 4 L 12 4 z M 12 8 L 52 8 C 54.216 8 56 9.784 56 12 L 56 52 C 56 54.216 54.216 56 52 56 L 12 56 C 9.784 56 8 54.216 8 52 L 8 12 C 8 9.784 9.784 8 12 8 z "
       transform="translate(0,988.36218)"
       id="rect2995" />
    <g
       id="g3004">
      <rect
         ry="2.9999974"
         rx="3"
         y="678.87762"
         x="741.13245"
         height="39.999996"
         width="6"
         id="rect3000"
         style="color:#000000;fill:#ff0000;fill-opacity:1;fill-rule:nonzero;stroke:none;stroke-width:0.5;marker:none;visibility:visible;display:inline;overflow:visible;enable-background:accumulate"
         transform="matrix(0.70710678,0.70710678,-0.70710678,0.70710678,0,0)" />
      <rect
         style="color:#000000;fill:#ff0000;fill-opacity:1;fill-rule:nonzero;stroke:none;stroke-width:0.5;marker:none;visibility:visible;display:inline;overflow:visible;enable-background:accumulate"
         id="rect3002"
         width="6.0000005"
         height="39.999996"
         x="695.87762"
         y="-764.13245"
         rx="3.0000002"
         ry="3"
         transform="matrix(-0.70710678,0.70710678,-0.70710678,-0.70710678,0,0)" />
    </g>
  </g>
</svg>
