<?xml version="1.0" encoding="UTF-8" standalone="no"?>
<!-- Created with Inkscape (http://www.inkscape.org/) -->

<svg
   xmlns:dc="http://purl.org/dc/elements/1.1/"
   xmlns:cc="http://creativecommons.org/ns#"
   xmlns:rdf="http://www.w3.org/1999/02/22-rdf-syntax-ns#"
   xmlns:svg="http://www.w3.org/2000/svg"
   xmlns="http://www.w3.org/2000/svg"
   version="1.1"
   width="64"
   height="64"
   id="svg2">
  <defs
     id="defs4" />
  <metadata
     id="metadata7">
    <rdf:RDF>
      <cc:Work
         rdf:about="">
        <dc:format>image/svg+xml</dc:format>
        <dc:type
           rdf:resource="http://purl.org/dc/dcmitype/StillImage" />
        <dc:title></dc:title>
      </cc:Work>
    </rdf:RDF>
  </metadata>
  <g
     transform="translate(0,-988.36218)"
     id="layer1">
    <rect
       width="64"
       height="64"
       rx="12"
       ry="11.999997"
       x="-1.0214052e-14"
       y="988.36218"
       id="rect3011"
       style="color:#000000;fill:#333333;fill-opacity:1;fill-rule:nonzero;stroke:none;stroke-width:0.5;marker:none;visibility:visible;display:inline;overflow:visible;enable-background:accumulate" />
    <path
       d="M 12,4 C 7.568,4 4,7.568 4,12 l 0,40 c 0,4.432 3.568,8 8,8 l 40,0 c 4.432,0 8,-3.568 8,-8 L 60,12 C 60,7.568 56.432,4 52,4 L 12,4 z m 0,4 40,0 c 2.216,0 4,1.784 4,4 l 0,40 c 0,2.216 -1.784,4 -4,4 L 12,56 C 9.784,56 8,54.216 8,52 L 8,12 C 8,9.784 9.784,8 12,8 z"
       transform="translate(0,988.36218)"
       id="rect2995"
       style="color:#000000;fill:#00ff00;fill-opacity:1;fill-rule:nonzero;stroke:none;stroke-width:0.5;marker:none;visibility:visible;display:inline;overflow:visible;enable-background:accumulate" />
    <rect
       width="32"
       height="6"
       rx="0"
       ry="6"
       x="16"
       y="1030.3622"
       id="rect2988"
       style="color:#000000;fill:#00ff00;fill-opacity:1;fill-rule:nonzero;stroke:none;stroke-width:0.5;marker:none;visibility:visible;display:inline;overflow:visible;enable-background:accumulate" />
    <rect
       width="6"
       height="6.0000024"
       rx="0"
       ry="6"
       x="16"
       y="-1030.3622"
       transform="scale(1,-1)"
       id="rect2990"
       style="color:#000000;fill:#00ff00;fill-opacity:1;fill-rule:nonzero;stroke:none;stroke-width:0.5;marker:none;visibility:visible;display:inline;overflow:visible;enable-background:accumulate" />
    <rect
       width="6"
       height="6.0000024"
       rx="0"
       ry="6"
       x="42"
       y="-1030.3622"
       transform="scale(1,-1)"
       id="rect2992"
       style="color:#000000;fill:#00ff00;fill-opacity:1;fill-rule:nonzero;stroke:none;stroke-width:0.5;marker:none;visibility:visible;display:inline;overflow:visible;enable-background:accumulate" />
    <rect
       width="6"
       height="20.000002"
       ry="0"
       x="29"
       y="1004.3622"
       id="rect2994"
       style="color:#000000;fill:#00ff00;fill-opacity:1;fill-rule:nonzero;stroke:none;stroke-width:0.5;marker:none;visibility:visible;display:inline;overflow:visible;enable-background:accumulate" />
    <path
       d="M 23,33 32.00558,42.000003 41,33 z"
       transform="translate(0,988.36218)"
       id="rect3001"
       style="color:#000000;fill:#00ff00;fill-opacity:1;fill-rule:nonzero;stroke:none;stroke-width:0.5;marker:none;visibility:visible;display:inline;overflow:visible;enable-background:accumulate" />
  </g>
</svg>
